<svg width="48" height="48" viewBox="-10.2941 -10.2941 44.5884 44.5884" xmlns="http://www.w3.org/2000/svg">
            <style>
        @keyframes popup {
            0% {
                opacity: 0;
                transform: scale(0);
            }
            100% {
                opacity: 1;
                transform: scale(1);
            }
        }
        @keyframes shake {
            0%, 100% { transform: translate(0, 0) rotate(0deg); }
            10% { transform: translate(-2px, -2px) rotate(-1deg); }
            20% { transform: translate(2px, 2px) rotate(1deg); }
            30% { transform: translate(-2px, 2px) rotate(-1deg); }
            40% { transform: translate(2px, -2px) rotate(1deg); }
            50% { transform: translate(-1px, 1px) rotate(-0.5deg); }
            60% { transform: translate(1px, -1px) rotate(0.5deg); }
            70% { transform: translate(-2px, 0) rotate(-1deg); }
            80% { transform: translate(2px, 0) rotate(1deg); }
            90% { transform: translate(-1px, -1px) rotate(-0.5deg); }
        }
        #apple-logo {
            animation: popup 0.6s cubic-bezier(0.68, -0.55, 0.265, 1.55) forwards;
        }
        #apple-logo:hover {
            animation: shake 0.5s ease-in-out infinite;
        }
    </style>
    <g id="apple-logo">
    <title>Apple</title><path fill="currentColor" d="M12.152 6.896c-.948 0-2.415-1.078-3.96-1.04-2.04.027-3.91 1.183-4.961 3.014-2.117 3.675-.546 9.103 1.519 12.09 1.013 1.454 2.208 3.09 3.792 3.039 1.52-.065 2.09-.987 3.935-.987 1.831 0 2.35.987 3.96.948 1.637-.026 2.676-1.48 3.676-2.948 1.156-1.688 1.636-3.325 1.662-3.415-.039-.013-3.182-1.221-3.22-4.857-.026-3.04 2.48-4.494 2.597-4.559-1.429-2.09-3.623-2.324-4.39-2.376-2-.156-3.675 1.09-4.61 1.09zM15.53 3.83c.843-1.012 1.4-2.427 1.245-3.83-1.207.052-2.662.805-3.532 1.818-.78.896-1.454 2.338-1.273 3.714 1.338.104 2.715-.688 3.559-1.701" />
    </g>
</svg>