<svg width="48" height="48" viewBox="-10.2941 -10.2941 44.5884 44.5884" xmlns="http://www.w3.org/2000/svg">
            <style>
        @keyframes popup {
            0% {
                opacity: 0;
                transform: scale(0);
            }
            100% {
                opacity: 1;
                transform: scale(1);
            }
        }
        @keyframes shake {
            0%, 100% { transform: translate(0, 0) rotate(0deg); }
            10% { transform: translate(-2px, -2px) rotate(-1deg); }
            20% { transform: translate(2px, 2px) rotate(1deg); }
            30% { transform: translate(-2px, 2px) rotate(-1deg); }
            40% { transform: translate(2px, -2px) rotate(1deg); }
            50% { transform: translate(-1px, 1px) rotate(-0.5deg); }
            60% { transform: translate(1px, -1px) rotate(0.5deg); }
            70% { transform: translate(-2px, 0) rotate(-1deg); }
            80% { transform: translate(2px, 0) rotate(1deg); }
            90% { transform: translate(-1px, -1px) rotate(-0.5deg); }
        }
        #cplusplus-logo {
            animation: popup 0.6s cubic-bezier(0.68, -0.55, 0.265, 1.55) forwards;
        }
        #cplusplus-logo:hover {
            animation: shake 0.5s ease-in-out infinite;
        }
    </style>
    <g id="cplusplus-logo">
    <title>C++</title><path fill="#00599D" d="M22.394 6c-.167-.29-.398-.543-.652-.69L12.926.22c-.509-.294-1.34-.294-1.848 0L2.26 5.31c-.508.293-.923 1.013-.923 1.6v10.18c0 .294.104.62.271.91.167.29.398.543.652.69l8.816 5.09c.508.293 1.34.293 1.848 0l8.816-5.09c.254-.147.485-.4.652-.69.167-.29.27-.616.27-.91V6.91c.003-.294-.1-.62-.268-.91zM12 19.11c-3.92 0-7.109-3.19-7.109-7.11 0-3.92 3.19-7.11 7.11-7.11a7.133 7.133 0 016.156 3.553l-3.076 1.78a3.567 3.567 0 00-3.08-1.78A3.56 3.56 0 008.444 12 3.56 3.56 0 0012 15.555a3.57 3.57 0 003.08-1.778l3.078 1.78A7.135 7.135 0 0112 19.11zm7.11-6.715h-.79v.79h-.79v-.79h-.79v-.79h.79v-.79h.79v.79h.79zm2.962 0h-.79v.79h-.79v-.79h-.79v-.79h.79v-.79h.79v.79h.79z" />
    </g>
</svg>