<svg width="48" height="48" viewBox="-2.4 -2.4 28.8 28.8" xmlns="http://www.w3.org/2000/svg">
    <style>
        @keyframes popup {
            0% {
                opacity: 0;
                transform: scale(0);
            }
            50% {
                transform: scale(1.2);
            }
            70% {
                transform: scale(0.9);
            }
            85% {
                transform: scale(1.05);
            }
            100% {
                opacity: 1;
                transform: scale(1);
            }
        }
        @keyframes float {
            0%, 100% {
                filter: drop-shadow(0 0 8px rgba(240, 80, 51, 0.3));
            }
            25% {
                filter: drop-shadow(0 0 12px rgba(240, 80, 51, 0.5));
            }
            50% {
                filter: drop-shadow(0 0 15px rgba(240, 80, 51, 0.6));
            }
            75% {
                filter: drop-shadow(0 0 12px rgba(240, 80, 51, 0.5));
            }
        }
        #digitalocean-logo {
            animation: popup 0.6s cubic-bezier(0.68, -0.55, 0.265, 1.55) forwards, float 3s ease-in-out 0.6s infinite;
            transform-origin: center;
        }
    </style>
    <g id="digitalocean-logo">
    <title>DigitalOcean</title><path d="M12.04 0C5.408-.02.005 5.37.005 11.992h4.638c0-4.923 4.882-8.731 10.064-6.855a6.95 6.95 0 014.147 4.148c1.889 5.177-1.924 10.055-6.84 10.064v-4.61H7.391v4.623h4.61V24c7.86 0 13.967-7.588 11.397-15.83-1.115-3.59-3.985-6.446-7.575-7.575A12.8 12.8 0 0012.039 0zM7.39 19.362H3.828v3.564H7.39zm-3.563 0v-2.978H.85v2.978z" fill="#F05032"/>
    </g>
</svg>