<svg width="48" height="48" viewBox="-2.4 -2.4 28.8 28.8" xmlns="http://www.w3.org/2000/svg">
    <style>
        @keyframes popup {
            0% {
                opacity: 0;
                transform: scale(0);
            }
            50% {
                transform: scale(1.2);
            }
            70% {
                transform: scale(0.9);
            }
            85% {
                transform: scale(1.05);
            }
            100% {
                opacity: 1;
                transform: scale(1);
            }
        }
        @keyframes float {
            0%, 100% {
                filter: drop-shadow(0 0 8px rgba(100, 100, 100, 0.3));
            }
            25% {
                filter: drop-shadow(0 0 12px rgba(100, 100, 100, 0.5));
            }
            50% {
                filter: drop-shadow(0 0 15px rgba(100, 100, 100, 0.6));
            }
            75% {
                filter: drop-shadow(0 0 12px rgba(100, 100, 100, 0.5));
            }
        }
        #gatsby-logo {
            animation: popup 0.6s cubic-bezier(0.68, -0.55, 0.265, 1.55) forwards, float 3s ease-in-out 0.6s infinite;
            transform-origin: center;
        }
    </style>
    <g id="gatsby-logo">
    <title>Gatsby</title><path d="M12 0C5.4 0 0 5.4 0 12s5.4 12 12 12 12-5.4 12-12S18.6 0 12 0zm0 2.571c3.171 0 5.915 1.543 7.629 3.858l-1.286 1.115C16.886 5.572 14.571 4.286 12 4.286c-3.343 0-6.171 2.143-7.286 5.143l9.857 9.857c2.486-.857 4.373-3 4.973-5.572h-4.115V12h6c0 4.457-3.172 8.228-7.372 9.17L2.83 9.944C3.772 5.743 7.543 2.57 12 2.57zm-9.429 9.6l9.344 9.258c-2.4-.086-4.801-.943-6.601-2.743-1.8-1.8-2.743-4.201-2.743-6.515z" fill="#646464"/>
    </g>
</svg>