<svg width="48" height="48" viewBox="-2.4 -2.4 28.8 28.8" xmlns="http://www.w3.org/2000/svg">
    <style>
        @keyframes popup {
            0% {
                opacity: 0;
                transform: scale(0);
            }
            50% {
                transform: scale(1.2);
            }
            70% {
                transform: scale(0.9);
            }
            85% {
                transform: scale(1.05);
            }
            100% {
                opacity: 1;
                transform: scale(1);
            }
        }
        @keyframes float {
            0%, 100% {
                filter: drop-shadow(0 0 8px rgba(240, 80, 51, 0.3));
            }
            25% {
                filter: drop-shadow(0 0 12px rgba(240, 80, 51, 0.5));
            }
            50% {
                filter: drop-shadow(0 0 15px rgba(240, 80, 51, 0.6));
            }
            75% {
                filter: drop-shadow(0 0 12px rgba(240, 80, 51, 0.5));
            }
        }
        #git-logo {
            animation: popup 0.6s cubic-bezier(0.68, -0.55, 0.265, 1.55) forwards, float 3s ease-in-out 0.6s infinite;
            transform-origin: center;
        }
    </style>
    <g id="git-logo">
    <title>Git</title><path d="M23.546 10.93L13.067.452c-.604-.603-1.582-.603-2.188 0L8.708 2.627l2.76 2.76c.645-.215 1.379-.07 1.889.441.516.515.658 1.258.438 1.9l2.658 2.66c.645-.223 1.387-.078 1.9.435.721.72.721 1.884 0 2.604-.719.719-1.881.719-2.6 0-.539-.541-.674-1.337-.404-1.996L12.86 8.955v6.525c.176.086.342.203.488.348.713.721.713 1.883 0 2.6-.719.721-1.889.721-2.609 0-.719-.719-.719-1.879 0-2.598.182-.18.387-.316.605-.406V8.835c-.217-.091-.424-.222-.6-.401-.545-.545-.676-1.342-.396-2.009L7.636 3.7.45 10.881c-.6.605-.6 1.584 0 2.189l10.48 10.477c.604.604 1.582.604 2.186 0l10.43-10.43c.605-.603.605-1.582 0-2.187" fill="#F05032"/>
    </g>
</svg>