<svg width="48" height="48" viewBox="-3.84 -3.84 31.68 31.68" xmlns="http://www.w3.org/2000/svg">
    <style>
        @keyframes popup {
            0% {
                opacity: 0;
                transform: scale(0);
            }
            50% {
                transform: scale(1.2);
            }
            70% {
                transform: scale(0.9);
            }
            85% {
                transform: scale(1.05);
            }
            100% {
                opacity: 1;
                transform: scale(1);
            }
        }
        @keyframes float {
            0%, 100% {
                filter: drop-shadow(0 0 8px rgba(252, 109, 38, 0.3));
            }
            25% {
                filter: drop-shadow(0 0 12px rgba(252, 109, 38, 0.5));
            }
            50% {
                filter: drop-shadow(0 0 15px rgba(252, 109, 38, 0.6));
            }
            75% {
                filter: drop-shadow(0 0 12px rgba(252, 109, 38, 0.5));
            }
        }
        #gitlab-logo {
            animation: popup 0.6s cubic-bezier(0.68, -0.55, 0.265, 1.55) forwards, float 3s ease-in-out 0.6s infinite;
            transform-origin: center;
        }
    </style>
    <g id="gitlab-logo">
    <title>GitLab</title><path d="m23.6004 9.5927-.0337-.0862L20.3.9814a.851.851 0 0 0-.3362-.405.8748.8748 0 0 0-.9997.0539.8748.8748 0 0 0-.29.4399l-2.2055 6.748H7.5375l-2.2057-6.748a.8573.8573 0 0 0-.29-.4412.8748.8748 0 0 0-.9997-.0537.8585.8585 0 0 0-.3362.4049L.4332 9.5015l-.0325.0862a6.0657 6.0657 0 0 0 2.0119 7.0105l.0113.0087.03.0213 4.976 3.7264 2.462 1.8633 1.4995 1.1321a1.0085 1.0085 0 0 0 1.2197 0l1.4995-1.1321 2.4619-1.8633 5.006-3.7489.0125-.01a6.0682 6.0682 0 0 0 2.0094-7.003z" fill="#FC6D26"/>
    </g>
</svg>