<svg width="48" height="48" viewBox="-2.4 -2.4 28.8 28.8" xmlns="http://www.w3.org/2000/svg">
    <style>
        @keyframes popup {
            0% {
                opacity: 0;
                transform: scale(0);
            }
            50% {
                transform: scale(1.2);
            }
            70% {
                transform: scale(0.9);
            }
            85% {
                transform: scale(1.05);
            }
            100% {
                opacity: 1;
                transform: scale(1);
            }
        }
        @keyframes float {
            0%, 100% {
                filter: drop-shadow(0 0 8px rgba(240, 80, 51, 0.3));
            }
            25% {
                filter: drop-shadow(0 0 12px rgba(240, 80, 51, 0.5));
            }
            50% {
                filter: drop-shadow(0 0 15px rgba(240, 80, 51, 0.6));
            }
            75% {
                filter: drop-shadow(0 0 12px rgba(240, 80, 51, 0.5));
            }
        }
        #gitpod-logo {
            animation: popup 0.6s cubic-bezier(0.68, -0.55, 0.265, 1.55) forwards, float 3s ease-in-out 0.6s infinite;
            transform-origin: center;
        }
    </style>
    <g id="gitpod-logo">
    <title>Gitpod</title><path d="M14.033 1.195a2.387 2.387 0 0 1-.87 3.235l-6.98 4.04a.602.602 0 0 0-.3.522v6.342a.6.6 0 0 0 .3.521l5.524 3.199a.585.585 0 0 0 .586 0l5.527-3.199a.603.603 0 0 0 .299-.52V11.39l-4.969 2.838a2.326 2.326 0 0 1-3.19-.9 2.388 2.388 0 0 1 .89-3.23l7.108-4.062C20.123 4.8 22.8 6.384 22.8 8.901v6.914a4.524 4.524 0 0 1-2.245 3.919l-6.345 3.672a4.407 4.407 0 0 1-4.422 0l-6.344-3.672A4.524 4.524 0 0 1 1.2 15.816V8.51a4.524 4.524 0 0 1 2.245-3.918l7.393-4.28a2.326 2.326 0 0 1 3.195.883z" fill="#F05032"/>
    </g>
</svg>