<svg width="48" height="48" viewBox="-2.4 -2.4 28.8 28.8" xmlns="http://www.w3.org/2000/svg">
    <style>
        @keyframes popup {
            0% {
                opacity: 0;
                transform: scale(0);
            }
            50% {
                transform: scale(1.2);
            }
            70% {
                transform: scale(0.9);
            }
            85% {
                transform: scale(1.05);
            }
            100% {
                opacity: 1;
                transform: scale(1);
            }
        }
        @keyframes float {
            0%, 100% {
                filter: drop-shadow(0 0 8px rgba(100, 100, 100, 0.3));
            }
            25% {
                filter: drop-shadow(0 0 12px rgba(100, 100, 100, 0.5));
            }
            50% {
                filter: drop-shadow(0 0 15px rgba(100, 100, 100, 0.6));
            }
            75% {
                filter: drop-shadow(0 0 12px rgba(100, 100, 100, 0.5));
            }
        }
        #heroui-logo {
            animation: popup 0.6s cubic-bezier(0.68, -0.55, 0.265, 1.55) forwards, float 3s ease-in-out 0.6s infinite;
            transform-origin: center;
        }
    </style>
    <g id="heroui-logo">
    <title>HeroUI</title><path d="M6.353 0h11.294A6.353 6.353 0 0 1 24 6.353v11.294A6.353 6.353 0 0 1 17.647 24H6.353A6.353 6.353 0 0 1 0 17.647V6.353A6.353 6.353 0 0 1 6.353 0Zm7.755 6.913h-.933v6.702a2.88 2.88 0 0 1-.362 1.45c-.24.424-.596.77-1.025 1-.443.244-.96.365-1.553.365-.592 0-1.108-.121-1.55-.364a2.603 2.603 0 0 1-1.024-1 2.865 2.865 0 0 1-.365-1.45V6.912h-.933v6.767a3.558 3.558 0 0 0 .489 1.862c.327.547.798.994 1.362 1.292.582.316 1.256.474 2.021.474.769 0 1.444-.157 2.024-.471a3.473 3.473 0 0 0 1.36-1.293c.33-.565.5-1.21.49-1.864V6.913Zm3.648 10.22V6.914h-.933v10.22h.933Z" fill="#646464"/>
    </g>
</svg>