<svg width="48" height="48" viewBox="-2.93 -2.93 53.86 53.86"  xmlns="http://www.w3.org/2000/svg"><rect x="-10.2941" y="-10.2941" width="44.5884" height="44.5884" rx="15" fill="currentColor" opacity="0.1"/>
            <style>
        @keyframes popup {
            0% {
                opacity: 0;
                transform: scale(0);
            }
            100% {
                opacity: 1;
                transform: scale(1);
            }
        }
        #html-logo {
            animation: popup 0.6s cubic-bezier(0.68, -0.55, 0.265, 1.55) forwards;
        }
    </style>
    <g id="html-logo">
    <path opacity="0.1" d="M31.8523 2.65694e-07H16.1477C7.22957 2.65694e-07 0 7.22957 0 16.1477V31.8523C0 40.7704 7.22957 48 16.1477 48H31.8523C40.7704 48 48 40.7704 48 31.8523V16.1477C48 7.22957 40.7704 2.65694e-07 31.8523 2.65694e-07Z" fill="currentColor"/>
        <path d="M14.6576 35.6934L12.5927 12.5927H35.2834L33.2162 35.6898L23.9242 38.2592L14.6576 35.6934Z" fill="currentColor"/>
        <path d="M23.938 36.2134L31.4663 34.1422L33.2375 14.4526H23.938V36.2134Z" fill="currentColor"/>
        <path d="M23.938 22.9687H20.2083L19.9507 20.0716H23.938V17.2424H23.9283H16.8704L16.9379 18.0014L17.6306 25.7979H23.938V22.9687Z" fill="white" data-foreground="true"/>
        <path d="M23.938 30.4342L23.9258 30.4376L20.809 29.5745L20.6097 27.2859H19.0952H17.8004L18.1924 31.7917L23.9251 33.4235L23.938 33.4199V30.4342Z" fill="white" data-foreground="true"/>
        <path d="M23.938 23.0081V25.8707H27.3865L27.0614 29.5835L23.938 30.4452V33.4235L29.6791 31.7969L29.7212 31.3134L30.3793 23.7768L30.4476 23.0081H29.693H23.938Z" fill="white" data-foreground="true"/>
        <path d="M23.938 17.2424V18.9751V20.0253V20.0322H30.7439H30.753L30.8096 19.4052L30.9382 17.9908L31.0056 17.2424H23.938Z" fill="white" data-foreground="true"/>
    </g>
</svg>