<svg width="48" height="48" viewBox="-10.2941 -10.2941 44.5884 44.5884" xmlns="http://www.w3.org/2000/svg">
    <rect x="-10.2941" y="-10.2941" width="44.5884" height="44.5884" rx="15" fill="currentColor" opacity="0.1"/>
    <style>
        @keyframes popup {
            0% {
                opacity: 0;
                transform: scale(0);
            }
            100% {
                opacity: 1;
                transform: scale(1);
            }
        }
        #meilisearch-logo {
            animation: popup 0.6s cubic-bezier(0.68, -0.55, 0.265, 1.55) forwards;
        }
    </style>
    <g id="meilisearch-logo">
        <title>Meilisearch</title><path fill="currentColor" d="m6.505 18.998 4.434-11.345a4.168 4.168 0 0 1 3.882-2.651h2.674l-4.434 11.345a4.169 4.169 0 0 1-3.883 2.651H6.505Zm6.505 0 4.434-11.345a4.169 4.169 0 0 1 3.883-2.651H24l-4.434 11.345a4.168 4.168 0 0 1-3.882 2.651H13.01Zm-13.01 0L4.434 7.653a4.168 4.168 0 0 1 3.882-2.651h2.674L6.556 16.347a4.169 4.169 0 0 1-3.883 2.651H0Z"/>
    </g>
</svg>