<svg width="48" height="48" viewBox="-3.84 -3.84 31.68 31.68" xmlns="http://www.w3.org/2000/svg">
    <style>
        @keyframes popup {
            0% {
                opacity: 0;
                transform: scale(0);
            }
            50% {
                transform: scale(1.2);
            }
            70% {
                transform: scale(0.9);
            }
            85% {
                transform: scale(1.05);
            }
            100% {
                opacity: 1;
                transform: scale(1);
            }
        }
        @keyframes float {
            0%, 100% {
                filter: drop-shadow(0 0 8px rgba(100, 100, 100, 0.3));
            }
            25% {
                filter: drop-shadow(0 0 12px rgba(100, 100, 100, 0.5));
            }
            50% {
                filter: drop-shadow(0 0 15px rgba(100, 100, 100, 0.6));
            }
            75% {
                filter: drop-shadow(0 0 12px rgba(100, 100, 100, 0.5));
            }
        }
        #rapid-logo {
            animation: popup 0.6s cubic-bezier(0.68, -0.55, 0.265, 1.55) forwards, float 3s ease-in-out 0.6s infinite;
            transform-origin: center;
        }
    </style>
    <g id="rapid-logo">
    <title>Rapid</title><path d="M16.028 15.798c-.212-.065-.228-.359.017-.457 4.216-1.993 3.938-6.519 3.938-6.519C19.967 4.232 16.6-.016 11.158 0 5.112.033 1.468 4.787 1.5 10.407 1.55 20.26 9.067 24.017 11.42 24l-.016-3.905c0-.62 0-1.11.375-1.11 0 0 2.42 2.434 5.116 2.417 4.183-.016 5.605-3.529 5.605-3.529zm-4.837-3.006a3.86 3.86 0 0 1-3.89-3.855 3.86 3.86 0 0 1 3.857-3.889 3.86 3.86 0 0 1 3.89 3.856c0 2.14-1.716 3.888-3.857 3.888z" fill="#61DAFB"/>
    </g>
</svg>