<svg width="48" height="48" viewBox="-10.2941 -10.2941 44.5884 44.5884" xmlns="http://www.w3.org/2000/svg">
            <style>
        @keyframes popup {
            0% {
                opacity: 0;
                transform: scale(0);
            }
            100% {
                opacity: 1;
                transform: scale(1);
            }
        }
        @keyframes shake {
            0%, 100% { transform: translate(0, 0) rotate(0deg); }
            10% { transform: translate(-2px, -2px) rotate(-1deg); }
            20% { transform: translate(2px, 2px) rotate(1deg); }
            30% { transform: translate(-2px, 2px) rotate(-1deg); }
            40% { transform: translate(2px, -2px) rotate(1deg); }
            50% { transform: translate(-1px, 1px) rotate(-0.5deg); }
            60% { transform: translate(1px, -1px) rotate(0.5deg); }
            70% { transform: translate(-2px, 0) rotate(-1deg); }
            80% { transform: translate(2px, 0) rotate(1deg); }
            90% { transform: translate(-1px, -1px) rotate(-0.5deg); }
        }
        #shadcnui-logo {
            animation: popup 0.6s cubic-bezier(0.68, -0.55, 0.265, 1.55) forwards;
        }
        #shadcnui-logo:hover {
            animation: shake 0.5s ease-in-out infinite;
        }
    </style>
    <g id="shadcnui-logo">
    <title>shadcn/ui</title><path fill="currentColor" d="M22.219 11.784 11.784 22.219c-.407.407-.407 1.068 0 1.476.407.407 1.068.407 1.476 0L23.695 13.26c.407-.408.407-1.069 0-1.476-.408-.407-1.069-.407-1.476 0ZM20.132.305.305 20.132c-.407.407-.407 1.068 0 1.476.408.407 1.069.407 1.476 0L21.608 1.781c.407-.407.407-1.068 0-1.476-.408-.407-1.069-.407-1.476 0Z" />
    </g>
</svg>