<svg width="48" height="48" viewBox="-3.84 -3.84 31.68 31.68" xmlns="http://www.w3.org/2000/svg">
    <style>
        @keyframes popup {
            0% {
                opacity: 0;
                transform: scale(0);
            }
            50% {
                transform: scale(1.2);
            }
            70% {
                transform: scale(0.9);
            }
            85% {
                transform: scale(1.05);
            }
            100% {
                opacity: 1;
                transform: scale(1);
            }
        }
        @keyframes float {
            0%, 100% {
                filter: drop-shadow(0 0 8px rgba(100, 100, 100, 0.3));
            }
            25% {
                filter: drop-shadow(0 0 12px rgba(100, 100, 100, 0.5));
            }
            50% {
                filter: drop-shadow(0 0 15px rgba(100, 100, 100, 0.6));
            }
            75% {
                filter: drop-shadow(0 0 12px rgba(100, 100, 100, 0.5));
            }
        }
        #sharp-logo {
            animation: popup 0.6s cubic-bezier(0.68, -0.55, 0.265, 1.55) forwards, float 3s ease-in-out 0.6s infinite;
            transform-origin: center;
        }
    </style>
    <g id="sharp-logo">
    <title>sharp</title><path d="M14.2209.0875v5.9613l-3.7433.5012v3.5233l3.7433-.5012v3.5735l3.492-.4672V9.1047L24 8.2634l-.4631-3.4613-5.824.7794V.0875zM6.287 1.145v5.9618L0 7.9483l.4634 3.4613 5.8514-.7834 3.4644-.4637V1.145zm3.5198 9.7185l-3.492.4675v3.578l-6.183.8276.4633 3.4613 5.8239-.7796v5.4942h3.492v-5.962l3.6114-.4834V13.944l-3.7156.4973zm13.73 1.7405l-5.824.779-3.492.4673v9.0179h3.492v-5.9618L24 16.0652Z" fill="#61DAFB"/>
    </g>
</svg>